<svg width="33" height="33" viewBox="0 0 33 33" fill="none" xmlns="http://www.w3.org/2000/svg">
<path d="M14.3335 10.5C14.3335 10.2239 14.1096 10 13.8335 10H12.5002C10.7513 10 9.3335 11.4178 9.3335 13.1667V19.8333C9.3335 21.5822 10.7513 23 12.5002 23H13.8335C14.1096 23 14.3335 22.7761 14.3335 22.5C14.3335 22.2239 14.1096 22 13.8335 22H12.5002C11.3035 22 10.3335 21.03 10.3335 19.8333V13.1667C10.3335 11.97 11.3035 11 12.5002 11H13.8335C14.1096 11 14.3335 10.7761 14.3335 10.5Z" fill="#555D68"/>
<path fill-rule="evenodd" clip-rule="evenodd" d="M17.3335 17V20.5C17.3335 21.8807 18.4528 23 19.8335 23H21.1668C22.5475 23 23.6668 21.8807 23.6668 20.5V12.5C23.6668 11.1193 22.5475 10 21.1668 10H19.8335C18.4528 10 17.3335 11.1193 17.3335 12.5V16H13.7073L14.8537 14.8536C15.049 14.6583 15.049 14.3417 14.8537 14.1464C14.6585 13.9512 14.3419 13.9512 14.1466 14.1464L12.1466 16.1464C11.9513 16.3417 11.9513 16.6583 12.1466 16.8536L14.1466 18.8536C14.3419 19.0488 14.6585 19.0488 14.8537 18.8536C15.049 18.6583 15.049 18.3417 14.8537 18.1464L13.7073 17H17.3335ZM21.1668 11C21.9953 11 22.6668 11.6716 22.6668 12.5V20.5C22.6668 21.3284 21.9953 22 21.1668 22H19.8335C19.0051 22 18.3335 21.3284 18.3335 20.5V12.5C18.3335 11.6716 19.0051 11 19.8335 11H21.1668Z" fill="#555D68"/>
</svg>
