<svg width="39" height="39" viewBox="0 0 39 39" fill="none" xmlns="http://www.w3.org/2000/svg">
<g filter="url(#filter0_d_372_60106)">
<rect x="2" y="1" width="35" height="35" rx="8" fill="white" shape-rendering="crispEdges"/>
<rect x="2.5" y="1.5" width="34" height="34" rx="7.5" stroke="#E1E3E4" shape-rendering="crispEdges"/>
<path d="M17.3335 12.5C17.3335 12.2239 17.1096 12 16.8335 12H15.5002C13.7513 12 12.3335 13.4178 12.3335 15.1667V21.8333C12.3335 23.5822 13.7513 25 15.5002 25H16.8335C17.1096 25 17.3335 24.7761 17.3335 24.5C17.3335 24.2239 17.1096 24 16.8335 24H15.5002C14.3035 24 13.3335 23.03 13.3335 21.8333V15.1667C13.3335 13.97 14.3035 13 15.5002 13H16.8335C17.1096 13 17.3335 12.7761 17.3335 12.5Z" fill="#555D68"/>
<path fill-rule="evenodd" clip-rule="evenodd" d="M20.3335 19V22.5C20.3335 23.8807 21.4528 25 22.8335 25H24.1668C25.5475 25 26.6668 23.8807 26.6668 22.5V14.5C26.6668 13.1193 25.5475 12 24.1668 12H22.8335C21.4528 12 20.3335 13.1193 20.3335 14.5V18H16.7073L17.8537 16.8536C18.049 16.6583 18.049 16.3417 17.8537 16.1464C17.6585 15.9512 17.3419 15.9512 17.1466 16.1464L15.1466 18.1464C14.9513 18.3417 14.9513 18.6583 15.1466 18.8536L17.1466 20.8536C17.3419 21.0488 17.6585 21.0488 17.8537 20.8536C18.049 20.6583 18.049 20.3417 17.8537 20.1464L16.7073 19H20.3335ZM24.1668 13C24.9953 13 25.6668 13.6716 25.6668 14.5V22.5C25.6668 23.3284 24.9953 24 24.1668 24H22.8335C22.0051 24 21.3335 23.3284 21.3335 22.5V14.5C21.3335 13.6716 22.0051 13 22.8335 13H24.1668Z" fill="#555D68"/>
</g>
<defs>
<filter id="filter0_d_372_60106" x="0" y="0" width="39" height="39" filterUnits="userSpaceOnUse" color-interpolation-filters="sRGB">
<feFlood flood-opacity="0" result="BackgroundImageFix"/>
<feColorMatrix in="SourceAlpha" type="matrix" values="0 0 0 0 0 0 0 0 0 0 0 0 0 0 0 0 0 0 127 0" result="hardAlpha"/>
<feOffset dy="1"/>
<feGaussianBlur stdDeviation="1"/>
<feComposite in2="hardAlpha" operator="out"/>
<feColorMatrix type="matrix" values="0 0 0 0 0 0 0 0 0 0 0 0 0 0 0 0 0 0 0.04 0"/>
<feBlend mode="normal" in2="BackgroundImageFix" result="effect1_dropShadow_372_60106"/>
<feBlend mode="normal" in="SourceGraphic" in2="effect1_dropShadow_372_60106" result="shape"/>
</filter>
</defs>
</svg>
