<svg width="40" height="40" viewBox="0 0 40 40" fill="none" xmlns="http://www.w3.org/2000/svg">
<path fill-rule="evenodd" clip-rule="evenodd" d="M12.25 26V20H13.75V25.9811C13.7506 25.9862 13.7516 25.9944 13.7535 26.0056C13.7595 26.042 13.7741 26.1089 13.8084 26.1969C13.8752 26.3688 14.0238 26.6397 14.3631 26.9306C15.047 27.5168 16.5897 28.25 20 28.25C23.4103 28.25 24.953 27.5168 25.6369 26.9306C25.9762 26.6397 26.1248 26.3688 26.1916 26.1969C26.2259 26.1089 26.2405 26.042 26.2465 26.0056C26.2484 25.9944 26.2494 25.9862 26.25 25.9811V20H27.75V26H27C27.75 26 27.75 26.0017 27.75 26.0017L27.75 26.0036L27.75 26.0074L27.7498 26.0161L27.7493 26.0368C27.7487 26.0522 27.7477 26.0706 27.746 26.0918C27.7427 26.1343 27.7368 26.1884 27.7261 26.2522C27.7048 26.3799 27.6648 26.5474 27.5896 26.7406C27.4377 27.1312 27.1488 27.6103 26.6131 28.0694C25.547 28.9832 23.5897 29.75 20 29.75C16.4103 29.75 14.453 28.9832 13.3869 28.0694C12.8512 27.6103 12.5623 27.1312 12.4104 26.7406C12.3352 26.5474 12.2952 26.3799 12.2739 26.2522C12.2632 26.1884 12.2573 26.1343 12.254 26.0918C12.2523 26.0706 12.2513 26.0522 12.2507 26.0368L12.2502 26.0161L12.25 26.0074L12.25 26.0036L12.25 26.0017C12.25 26.0017 12.25 26 13 26H12.25Z" fill="#242525"/>
<path fill-rule="evenodd" clip-rule="evenodd" d="M12.25 20V14H13.75V19.9811C13.7506 19.9862 13.7516 19.9944 13.7535 20.0056C13.7595 20.042 13.7741 20.1089 13.8084 20.1969C13.8752 20.3688 14.0238 20.6397 14.3631 20.9306C15.047 21.5168 16.5897 22.25 20 22.25C23.4103 22.25 24.953 21.5168 25.6369 20.9306C25.9762 20.6397 26.1248 20.3688 26.1916 20.1969C26.2259 20.1089 26.2405 20.042 26.2465 20.0056C26.2484 19.9944 26.2494 19.9862 26.25 19.9811V14H27.75V20H27C27.75 20 27.75 20.0017 27.75 20.0017L27.75 20.0036L27.75 20.0074L27.7498 20.0161L27.7493 20.0368C27.7487 20.0522 27.7477 20.0706 27.746 20.0918C27.7427 20.1343 27.7368 20.1884 27.7261 20.2522C27.7048 20.3799 27.6648 20.5474 27.5896 20.7406C27.4377 21.1312 27.1488 21.6103 26.6131 22.0694C25.547 22.9832 23.5897 23.75 20 23.75C16.4103 23.75 14.453 22.9832 13.3869 22.0694C12.8512 21.6103 12.5623 21.1312 12.4104 20.7406C12.3352 20.5474 12.2952 20.3799 12.2739 20.2522C12.2632 20.1884 12.2573 20.1343 12.254 20.0918C12.2523 20.0706 12.2513 20.0522 12.2507 20.0368L12.2502 20.0161L12.25 20.0074L12.25 20.0036L12.25 20.0017C12.25 20.0017 12.25 20 13 20H12.25Z" fill="#242525"/>
<path fill-rule="evenodd" clip-rule="evenodd" d="M13.3869 11.9306C14.453 11.0168 16.4103 10.25 20 10.25C23.5897 10.25 25.547 11.0168 26.6131 11.9306C27.1488 12.3897 27.4377 12.8688 27.5896 13.2594C27.6648 13.4526 27.7048 13.6201 27.7261 13.7478C27.7368 13.8116 27.7427 13.8657 27.746 13.9082C27.7477 13.9294 27.7487 13.9478 27.7493 13.9632L27.7498 13.9839L27.75 13.9926L27.75 13.9964L27.75 13.9983C27.75 13.9983 27.75 14 27 14C27.75 14 27.75 14.0017 27.75 14.0017L27.75 14.0036L27.75 14.0074L27.7498 14.0161L27.7493 14.0368C27.7487 14.0522 27.7477 14.0706 27.746 14.0918C27.7427 14.1343 27.7368 14.1884 27.7261 14.2522C27.7048 14.3799 27.6648 14.5474 27.5896 14.7406C27.4377 15.1312 27.1488 15.6103 26.6131 16.0694C25.547 16.9832 23.5897 17.75 20 17.75C16.4103 17.75 14.453 16.9832 13.3869 16.0694C12.8512 15.6103 12.5623 15.1312 12.4104 14.7406C12.3352 14.5474 12.2952 14.3799 12.2739 14.2522C12.2632 14.1884 12.2573 14.1343 12.254 14.0918C12.2523 14.0706 12.2513 14.0522 12.2507 14.0368L12.2502 14.0161L12.25 14.0074L12.25 14.0036L12.25 14.0017C12.25 14.0017 12.25 14 13 14C12.25 14 12.25 13.9983 12.25 13.9983L12.25 13.9964L12.25 13.9926L12.2502 13.9839L12.2507 13.9632C12.2513 13.9478 12.2523 13.9294 12.254 13.9082C12.2573 13.8657 12.2632 13.8116 12.2739 13.7478C12.2952 13.6201 12.3352 13.4526 12.4104 13.2594C12.5623 12.8688 12.8512 12.3897 13.3869 11.9306ZM13.7526 14L13.7535 14.0056C13.7595 14.042 13.7741 14.1089 13.8084 14.1969C13.8752 14.3688 14.0238 14.6397 14.3631 14.9306C15.047 15.5168 16.5897 16.25 20 16.25C23.4103 16.25 24.953 15.5168 25.6369 14.9306C25.9762 14.6397 26.1248 14.3688 26.1916 14.1969C26.2259 14.1089 26.2405 14.042 26.2465 14.0056L26.2474 14L26.2465 13.9944C26.2405 13.958 26.2259 13.8911 26.1916 13.8031C26.1248 13.6312 25.9762 13.3603 25.6369 13.0694C24.953 12.4832 23.4103 11.75 20 11.75C16.5897 11.75 15.047 12.4832 14.3631 13.0694C14.0238 13.3603 13.8752 13.6312 13.8084 13.8031C13.7741 13.8911 13.7595 13.958 13.7535 13.9944L13.7526 14Z" fill="#242525"/>
</svg>
