<svg width="33" height="33" viewBox="0 0 33 33" fill="none" xmlns="http://www.w3.org/2000/svg">
<path d="M18.6665 10.5C18.6665 10.2239 18.8904 10 19.1665 10H20.4998C22.2487 10 23.6665 11.4178 23.6665 13.1667V19.8333C23.6665 21.5822 22.2487 23 20.4998 23H19.1665C18.8904 23 18.6665 22.7761 18.6665 22.5C18.6665 22.2239 18.8904 22 19.1665 22H20.4998C21.6965 22 22.6665 21.03 22.6665 19.8333V13.1667C22.6665 11.97 21.6965 11 20.4998 11H19.1665C18.8904 11 18.6665 10.7761 18.6665 10.5Z" fill="#555D68"/>
<path fill-rule="evenodd" clip-rule="evenodd" d="M15.6665 17V20.5C15.6665 21.8807 14.5472 23 13.1665 23H11.8332C10.4525 23 9.33317 21.8807 9.33317 20.5V12.5C9.33317 11.1193 10.4525 10 11.8332 10H13.1665C14.5472 10 15.6665 11.1193 15.6665 12.5V16H19.2927L18.1463 14.8536C17.951 14.6583 17.951 14.3417 18.1463 14.1464C18.3415 13.9512 18.6581 13.9512 18.8534 14.1464L20.8534 16.1464C21.0487 16.3417 21.0487 16.6583 20.8534 16.8536L18.8534 18.8536C18.6581 19.0488 18.3415 19.0488 18.1463 18.8536C17.951 18.6583 17.951 18.3417 18.1463 18.1464L19.2927 17H15.6665ZM11.8332 11C11.0047 11 10.3332 11.6716 10.3332 12.5V20.5C10.3332 21.3284 11.0047 22 11.8332 22H13.1665C13.9949 22 14.6665 21.3284 14.6665 20.5V12.5C14.6665 11.6716 13.9949 11 13.1665 11H11.8332Z" fill="#555D68"/>
</svg>
