<svg width="40" height="40" viewBox="0 0 40 40" fill="none" xmlns="http://www.w3.org/2000/svg">
<path d="M29.5 22L28 17C28 17 27.5 15 25.5 15C25.5 15 25.5 13 23.5 13C21.5 13 21.5 15 21.5 15H18.5C18.5 15 18.5 13 16.5 13C14.5 13 14.5 15 14.5 15C12.5 15 12 17 12 17L10.5 22" stroke="black" stroke-width="1.5" stroke-linecap="round" stroke-linejoin="round"/>
<path d="M14 28C16.2091 28 18 26.2091 18 24C18 21.7909 16.2091 20 14 20C11.7909 20 10 21.7909 10 24C10 26.2091 11.7909 28 14 28Z" stroke="black" stroke-width="1.5" stroke-linecap="round" stroke-linejoin="round"/>
<path d="M26 28C28.2091 28 30 26.2091 30 24C30 21.7909 28.2091 20 26 20C23.7909 20 22 21.7909 22 24C22 26.2091 23.7909 28 26 28Z" stroke="black" stroke-width="1.5" stroke-linecap="round" stroke-linejoin="round"/>
<path d="M20 24C21.1046 24 22 23.1046 22 22C22 20.8954 21.1046 20 20 20C18.8954 20 18 20.8954 18 22C18 23.1046 18.8954 24 20 24Z" stroke="black" stroke-width="1.5" stroke-linecap="round" stroke-linejoin="round"/>
</svg>
