<svg width="40" height="40" viewBox="0 0 40 40" fill="none" xmlns="http://www.w3.org/2000/svg">
<path fill-rule="evenodd" clip-rule="evenodd" d="M20 10.75C14.8914 10.75 10.75 14.8914 10.75 20C10.75 25.1086 14.8914 29.25 20 29.25C25.1086 29.25 29.25 25.1086 29.25 20C29.25 14.8914 25.1086 10.75 20 10.75ZM9.25 20C9.25 14.0629 14.0629 9.25 20 9.25C25.9371 9.25 30.75 14.0629 30.75 20C30.75 25.9371 25.9371 30.75 20 30.75C14.0629 30.75 9.25 25.9371 9.25 20Z" fill="#242525"/>
<path fill-rule="evenodd" clip-rule="evenodd" d="M18.3446 15.6031C18.0001 15.8954 17.75 16.341 17.75 17C17.75 17.4142 17.4142 17.75 17 17.75C16.5858 17.75 16.25 17.4142 16.25 17C16.25 15.909 16.6874 15.0421 17.3741 14.4594C18.0446 13.8905 18.9119 13.625 19.75 13.625C20.5881 13.625 21.4554 13.8905 22.1259 14.4594C22.8126 15.0421 23.25 15.909 23.25 17C23.25 17.7659 23.0538 18.3495 22.7334 18.8301C22.4642 19.234 22.1143 19.5462 21.839 19.7919C21.8089 19.8187 21.7798 19.8447 21.7517 19.87C21.4445 20.1464 21.213 20.3743 21.0433 20.6741C20.881 20.9609 20.75 21.3616 20.75 21.9999C20.75 22.4142 20.4142 22.7499 20 22.7499C19.5858 22.7499 19.25 22.4142 19.25 21.9999C19.25 21.1383 19.4315 20.4765 19.7379 19.9352C20.037 19.4069 20.4305 19.041 20.7483 18.755C20.7729 18.7328 20.797 18.7112 20.8205 18.6901C21.1207 18.4204 21.3276 18.2347 21.4853 17.998C21.6337 17.7755 21.75 17.4841 21.75 17C21.75 16.341 21.4999 15.8954 21.1554 15.6031C20.7946 15.297 20.2869 15.125 19.75 15.125C19.2131 15.125 18.7054 15.297 18.3446 15.6031Z" fill="#242525"/>
<path fill-rule="evenodd" clip-rule="evenodd" d="M20.5117 25.4414C20.8196 25.7185 20.8446 26.1927 20.5675 26.5006L20.5575 26.5117C20.2804 26.8196 19.8062 26.8446 19.4983 26.5675C19.1904 26.2904 19.1654 25.8162 19.4425 25.5083L19.4525 25.4972C19.7296 25.1893 20.2038 25.1643 20.5117 25.4414Z" fill="#242525"/>
</svg>
