<svg width="40" height="40" viewBox="0 0 40 40" fill="none" xmlns="http://www.w3.org/2000/svg">
<rect width="40" height="40" fill="white"/>
<path fill-rule="evenodd" clip-rule="evenodd" d="M27.5303 19.4697C27.8232 19.7626 27.8232 20.2374 27.5303 20.5303L24.5303 23.5303C24.2374 23.8232 23.7626 23.8232 23.4697 23.5303C23.1768 23.2374 23.1768 22.7626 23.4697 22.4697L25.1893 20.75H20C19.5858 20.75 19.25 20.4142 19.25 20C19.25 19.5858 19.5858 19.25 20 19.25H25.1893L23.4697 17.5303C23.1768 17.2374 23.1768 16.7626 23.4697 16.4697C23.7626 16.1768 24.2374 16.1768 24.5303 16.4697L27.5303 19.4697Z" fill="#EC734F"/>
<path fill-rule="evenodd" clip-rule="evenodd" d="M15 11.75C14.3096 11.75 13.75 12.3096 13.75 13V27C13.75 27.6904 14.3096 28.25 15 28.25H25C25.6904 28.25 26.25 27.6904 26.25 27V26C26.25 25.5858 26.5858 25.25 27 25.25C27.4142 25.25 27.75 25.5858 27.75 26V27C27.75 28.5188 26.5188 29.75 25 29.75H15C13.4812 29.75 12.25 28.5188 12.25 27V13C12.25 11.4812 13.4812 10.25 15 10.25H25C26.5188 10.25 27.75 11.4812 27.75 13V14C27.75 14.4142 27.4142 14.75 27 14.75C26.5858 14.75 26.25 14.4142 26.25 14V13C26.25 12.3096 25.6904 11.75 25 11.75H15Z" fill="#EC734F"/>
</svg>
