<svg width="24" height="24" viewBox="0 0 24 24" fill="none" xmlns="http://www.w3.org/2000/svg">
<path fill-rule="evenodd" clip-rule="evenodd" d="M14.083 3C14.083 2.58579 13.7472 2.25 13.333 2.25C12.9188 2.25 12.583 2.58579 12.583 3V5.63477H7.41699V3C7.41699 2.58579 7.08121 2.25 6.66699 2.25C6.25278 2.25 5.91699 2.58579 5.91699 3V5.85623C4.93668 6.27667 4.25 7.25053 4.25 8.38477V11.154C4.25 12.6728 5.48122 13.904 7 13.904H9.25V21C9.25 21.4142 9.58579 21.75 10 21.75C10.4142 21.75 10.75 21.4142 10.75 21V13.904H13C14.5188 13.904 15.75 12.6728 15.75 11.154V8.38477C15.75 7.25053 15.0633 6.27667 14.083 5.85623V3ZM7 7.13477C6.30964 7.13477 5.75 7.69441 5.75 8.38477V11.154C5.75 11.8444 6.30964 12.404 7 12.404H9.983L10 12.4038L10.017 12.404H13C13.6904 12.404 14.25 11.8444 14.25 11.154V8.38477C14.25 7.69441 13.6904 7.13477 13 7.13477H7Z" fill="#242525"/>
<path d="M17.3223 16.3644C17.5234 16.0023 17.393 15.5457 17.0309 15.3445C16.6688 15.1434 16.2122 15.2738 16.011 15.6359L14.3444 18.6359C14.2153 18.8682 14.2188 19.1514 14.3536 19.3805C14.4884 19.6095 14.7343 19.7501 15 19.7501H17.7254L16.6777 21.6359C16.4766 21.998 16.607 22.4546 16.9691 22.6558C17.3312 22.8569 17.7878 22.7265 17.989 22.3644L19.6556 19.3644C19.7847 19.1321 19.7812 18.8488 19.6464 18.6198C19.5116 18.3908 19.2657 18.2501 19 18.2501H16.2746L17.3223 16.3644Z" fill="#242525"/>
</svg>
