<svg width="40" height="40" viewBox="0 0 40 40" fill="none" xmlns="http://www.w3.org/2000/svg">
<path fill-rule="evenodd" clip-rule="evenodd" d="M22.083 11C22.083 10.5858 21.7472 10.25 21.333 10.25C20.9188 10.25 20.583 10.5858 20.583 11V13.6348H15.417V11C15.417 10.5858 15.0812 10.25 14.667 10.25C14.2528 10.25 13.917 10.5858 13.917 11V13.8562C12.9367 14.2767 12.25 15.2505 12.25 16.3848V19.154C12.25 20.6728 13.4812 21.904 15 21.904H17.25V29C17.25 29.4142 17.5858 29.75 18 29.75C18.4142 29.75 18.75 29.4142 18.75 29V21.904H21C22.5188 21.904 23.75 20.6728 23.75 19.154V16.3848C23.75 15.2505 23.0633 14.2767 22.083 13.8562V11ZM15 15.1348C14.3096 15.1348 13.75 15.6944 13.75 16.3848V19.154C13.75 19.8444 14.3096 20.404 15 20.404H17.983L18 20.4038L18.017 20.404H21C21.6904 20.404 22.25 19.8444 22.25 19.154V16.3848C22.25 15.6944 21.6904 15.1348 21 15.1348H15Z" fill="#242525"/>
<path d="M25.3223 24.3644C25.5234 24.0023 25.393 23.5457 25.0309 23.3445C24.6688 23.1434 24.2122 23.2738 24.011 23.6359L22.3444 26.6359C22.2153 26.8682 22.2188 27.1514 22.3536 27.3805C22.4884 27.6095 22.7343 27.7501 23 27.7501H25.7254L24.6777 29.6359C24.4766 29.998 24.607 30.4546 24.9691 30.6558C25.3312 30.8569 25.7878 30.7265 25.989 30.3644L27.6556 27.3644C27.7847 27.1321 27.7812 26.8488 27.6464 26.6198C27.5116 26.3908 27.2657 26.2501 27 26.2501H24.2746L25.3223 24.3644Z" fill="#242525"/>
</svg>
