<svg width="40" height="40" viewBox="0 0 40 40" fill="none" xmlns="http://www.w3.org/2000/svg">
<rect width="40" height="40" fill="white"/>
<path fill-rule="evenodd" clip-rule="evenodd" d="M20 17.75C18.7574 17.75 17.75 18.7574 17.75 20C17.75 21.2426 18.7574 22.25 20 22.25C21.2426 22.25 22.25 21.2426 22.25 20C22.25 18.7574 21.2426 17.75 20 17.75ZM16.25 20C16.25 17.9289 17.9289 16.25 20 16.25C22.0711 16.25 23.75 17.9289 23.75 20C23.75 22.0711 22.0711 23.75 20 23.75C17.9289 23.75 16.25 22.0711 16.25 20Z" fill="#242525"/>
<path fill-rule="evenodd" clip-rule="evenodd" d="M18.2557 9.80912C18.3424 9.47964 18.6403 9.25 18.981 9.25H20.9353C21.2762 9.25 21.5741 9.47982 21.6607 9.80947L22.1883 11.8181L24.126 12.615L25.5127 11.4298C25.8104 11.1755 26.2535 11.1929 26.5303 11.4697L28.5303 13.4697C28.8061 13.7454 28.8245 14.1865 28.5727 14.4842L27.3925 15.8801L28.1715 17.7612L30.1848 18.2731C30.5173 18.3577 30.75 18.657 30.75 19L30.7499 20.9772C30.7499 21.3187 30.5192 21.617 30.1887 21.703L28.164 22.2299L27.3839 24.1135L28.5721 25.515C28.8245 25.8127 28.8063 26.2543 28.5303 26.5303L26.5303 28.5303C26.2486 28.812 25.7958 28.8243 25.4993 28.5584L25.4437 28.5087C25.4077 28.4766 25.3557 28.4302 25.2918 28.3735C25.1639 28.2601 24.989 28.1057 24.8008 27.9419C24.5687 27.7399 24.3307 27.5361 24.1369 27.3762L22.2392 28.1621L21.727 30.1841C21.6428 30.5169 21.3433 30.75 21 30.75H19C18.6565 30.75 18.3569 30.5167 18.2728 30.1836L17.7623 28.1622L15.9188 27.4038L14.4738 28.5814C14.1755 28.8245 13.7417 28.8024 13.4697 28.5303L11.4697 26.5303C11.1886 26.2492 11.1756 25.7976 11.4402 25.5009L12.6406 24.1544L11.8517 22.283L9.80248 21.7235C9.47627 21.6345 9.25 21.3381 9.25 21V19C9.25 18.6515 9.49012 18.3488 9.82955 18.2696L11.824 17.8042L12.5914 15.9174L11.4179 14.4729C11.1756 14.1746 11.1979 13.7414 11.4697 13.4697L13.4697 11.4697C13.7505 11.1888 14.2017 11.1756 14.4984 11.4396L15.8492 12.641L17.7177 11.8534L18.2557 9.80912ZM19.5591 10.75L19.0744 12.592C19.0152 12.817 18.8548 13.0018 18.6404 13.0922L15.9957 14.2071C15.7293 14.3194 15.422 14.2685 15.206 14.0764L14.0301 13.0305L13.0086 14.052L14.0355 15.3159C14.208 15.5283 14.2512 15.8179 14.1481 16.0714L13.0672 18.7289C12.9755 18.9544 12.78 19.1214 12.5429 19.1767L10.75 19.5951V20.4273L12.5986 20.932C12.8208 20.9926 13.0028 21.152 13.0922 21.3642L14.2069 24.0084C14.3193 24.2751 14.2682 24.5828 14.0756 24.7988L13.0311 25.9704L14.0513 26.9907L15.3174 25.9589C15.5307 25.7851 15.822 25.742 16.0765 25.8467L18.6824 26.9187C18.9021 27.0091 19.066 27.1983 19.1242 27.4287L19.5841 29.25H20.4163L20.8775 27.429C20.9356 27.1995 21.0988 27.0109 21.3176 26.9203L23.9682 25.8226C24.2073 25.7236 24.4807 25.7549 24.6913 25.9054C24.9476 26.0886 25.4134 26.4865 25.7856 26.8105C25.8486 26.8653 25.9101 26.919 25.9688 26.9705L26.9812 25.9581L25.9438 24.7344C25.7621 24.5201 25.7155 24.2221 25.823 23.9625L26.9209 21.3111C27.0109 21.0939 27.1975 20.9314 27.425 20.8722L29.2499 20.3974L29.25 19.5831L27.4375 19.1223C27.2083 19.064 27.0199 18.9009 26.9294 18.6823L25.8318 16.0317C25.7244 15.7724 25.7708 15.4749 25.952 15.2605L26.9819 14.0425L25.96 13.0207L24.752 14.0531C24.538 14.2359 24.2397 14.2836 23.9795 14.1766L21.2725 13.0634C21.055 12.9739 20.8921 12.7877 20.8324 12.5603L20.3569 10.75H19.5591Z" fill="#242525"/>
</svg>
