<svg width="40" height="40" viewBox="0 0 40 40" fill="none" xmlns="http://www.w3.org/2000/svg">
<path d="M19.5675 10.5008C19.8446 10.1929 19.8196 9.71865 19.5117 9.44156C19.2038 9.16447 18.7296 9.18942 18.4525 9.49731L18.4425 9.50842C18.1654 9.8163 18.1904 10.2905 18.4983 10.5676C18.8062 10.8447 19.2804 10.8197 19.5575 10.5119L19.5675 10.5008Z" fill="#242525"/>
<path d="M21.5117 14.4416C21.8196 14.7187 21.8446 15.1929 21.5675 15.5008L21.5575 15.5119C21.2804 15.8197 20.8062 15.8447 20.4983 15.5676C20.1904 15.2905 20.1654 14.8163 20.4425 14.5084L20.4525 14.4973C20.7296 14.1894 21.2038 14.1645 21.5117 14.4416Z" fill="#242525"/>
<path fill-rule="evenodd" clip-rule="evenodd" d="M15.25 12C15.25 11.5858 15.5858 11.25 16 11.25H24C24.4142 11.25 24.75 11.5858 24.75 12C24.75 12.4142 24.4142 12.75 24 12.75H23.75V16.7531C23.75 17.2141 24.023 17.6831 24.4968 18.0017C26.8599 19.5905 28.75 22.3104 28.75 25.4616C28.75 26.344 28.6265 27.198 28.3958 28.0058C28.0712 29.1423 26.9936 29.75 25.949 29.75H14.051C13.0064 29.75 11.9288 29.1423 11.6042 28.0058C11.3735 27.198 11.25 26.344 11.25 25.4616C11.25 22.3104 13.1401 19.5905 15.5032 18.0017C15.977 17.6831 16.25 17.2141 16.25 16.7531V12.75H16C15.5858 12.75 15.25 12.4142 15.25 12ZM17.75 12.75V16.7531C17.75 17.8185 17.1331 18.7134 16.3402 19.2465C15.2088 20.0072 14.2343 21.046 13.5872 22.25H26.4128C25.7657 21.046 24.7912 20.0072 23.6598 19.2465C22.8669 18.7134 22.25 17.8185 22.25 16.7531V12.75H17.75ZM27 23.6906V23.75H13V23.6906C12.838 24.261 12.75 24.8544 12.75 25.4616C12.75 26.2036 12.8538 26.919 13.0465 27.5939C13.1508 27.959 13.5338 28.25 14.051 28.25H25.949C26.4662 28.25 26.8492 27.959 26.9535 27.5939C27.1462 26.919 27.25 26.2036 27.25 25.4616C27.25 24.8544 27.162 24.261 27 23.6906Z" fill="#242525"/>
</svg>
