<svg width="24" height="24" viewBox="0 0 24 24" fill="none" xmlns="http://www.w3.org/2000/svg">
<path d="M11.5675 2.50075C11.8446 2.19287 11.8196 1.71865 11.5117 1.44156C11.2038 1.16447 10.7296 1.18942 10.4525 1.49731L10.4425 1.50842C10.1654 1.8163 10.1904 2.29052 10.4983 2.56761C10.8062 2.84471 11.2804 2.81975 11.5575 2.51186L11.5675 2.50075Z" fill="black" fill-opacity="0.85"/>
<path d="M13.5117 6.44156C13.8196 6.71865 13.8446 7.19287 13.5675 7.50075L13.5575 7.51186C13.2804 7.81975 12.8062 7.84471 12.4983 7.56761C12.1904 7.29052 12.1654 6.8163 12.4425 6.50842L12.4525 6.49731C12.7296 6.18942 13.2038 6.16446 13.5117 6.44156Z" fill="black" fill-opacity="0.85"/>
<path fill-rule="evenodd" clip-rule="evenodd" d="M7.25 4C7.25 3.58579 7.58579 3.25 8 3.25H16C16.4142 3.25 16.75 3.58579 16.75 4C16.75 4.41421 16.4142 4.75 16 4.75H15.75V8.75309C15.75 9.2141 16.023 9.6831 16.4968 10.0017C18.8599 11.5905 20.75 14.3104 20.75 17.4616C20.75 18.344 20.6265 19.198 20.3958 20.0058C20.0712 21.1423 18.9936 21.75 17.949 21.75H6.05096C5.00643 21.75 3.92877 21.1423 3.60419 20.0058C3.37348 19.198 3.25 18.344 3.25 17.4616C3.25 14.3104 5.14014 11.5905 7.50324 10.0017C7.97704 9.6831 8.25 9.2141 8.25 8.75309V4.75H8C7.58579 4.75 7.25 4.41421 7.25 4ZM9.75 4.75V8.75309C9.75 9.81846 9.13307 10.7134 8.34019 11.2465C7.20879 12.0072 6.23428 13.046 5.58722 14.25H18.4128C17.7657 13.046 16.7912 12.0072 15.6598 11.2465C14.8669 10.7134 14.25 9.81846 14.25 8.75309V4.75H9.75ZM19 15.6906V15.75H5V15.6906C4.83799 16.261 4.75 16.8544 4.75 17.4616C4.75 18.2036 4.85376 18.919 5.04651 19.5939C5.1508 19.959 5.53382 20.25 6.05096 20.25H17.949C18.4662 20.25 18.8492 19.959 18.9535 19.5939C19.1462 18.919 19.25 18.2036 19.25 17.4616C19.25 16.8544 19.162 16.261 19 15.6906Z" fill="black" fill-opacity="0.85"/>
</svg>
